<svg xmlns="http://www.w3.org/2000/svg" width="256" height="256" viewBox="0 0 100 100"><rect width="100" height="100" rx="20" fill="#000000"></rect><path d="M3.95 19.79L3.95 80.21L17.94 80.21Q22.30 80.17 26.05 79.18Q29.81 78.18 32.80 76.31L32.80 76.31Q35.62 74.53 37.90 72.00Q40.18 69.47 41.68 66.35L41.68 66.35Q43.13 63.36 43.90 59.79Q44.67 56.23 44.67 52.24L44.67 52.24L44.67 47.80Q44.63 43.65 43.82 40.00Q43.01 36.35 41.47 33.27L41.47 33.27Q39.77 29.66 36.93 26.90Q34.08 24.14 30.39 22.44L30.39 22.44Q27.73 21.20 24.60 20.51Q21.47 19.83 17.94 19.79L17.94 19.79L3.95 19.79ZM11.75 73.95L11.75 26.09L17.94 26.09Q20.80 26.14 23.21 26.74Q25.62 27.34 27.57 28.42L27.57 28.42Q30.31 29.87 32.19 32.22Q34.08 34.56 35.20 37.47L35.20 37.47Q36.08 39.71 36.51 42.30Q36.95 44.90 36.99 47.72L36.99 47.72L36.99 52.24Q36.95 55.02 36.53 57.57Q36.12 60.13 35.29 62.33L35.29 62.33Q34.33 65.02 32.69 67.20Q31.05 69.38 28.81 70.88L28.81 70.88Q26.70 72.33 23.98 73.12Q21.26 73.91 17.94 73.95L17.94 73.95L11.75 73.95ZM64.13 80.21L64.13 55.98L76.04 55.98Q80.11 55.94 83.74 54.73Q87.37 53.53 90.11 51.25L90.11 51.25Q92.85 48.96 94.45 45.62Q96.05 42.28 96.05 37.92L96.05 37.92Q96.05 33.56 94.45 30.20Q92.85 26.84 90.11 24.56L90.11 24.56Q87.37 22.28 83.74 21.07Q80.11 19.87 76.04 19.79L76.04 19.79L56.45 19.79L56.45 80.21L64.13 80.21ZM76.04 49.67L64.13 49.67L64.13 26.09L76.04 26.09Q78.70 26.14 80.96 26.97Q83.22 27.80 84.88 29.33L84.88 29.33Q86.50 30.87 87.44 33.07Q88.37 35.27 88.37 38.01L88.37 38.01Q88.37 40.74 87.44 42.88Q86.50 45.02 84.84 46.51L84.84 46.51Q83.18 48.01 80.94 48.82Q78.70 49.63 76.04 49.67L76.04 49.67Z" fill="#fff"></path></svg>